<?xml version="1.0" encoding="utf-8"?>
<!-- Generator: Adobe Illustrator 24.3.0, SVG Export Plug-In . SVG Version: 6.00 Build 0)  -->
<svg version="1.1" id="Calque_1" xmlns="http://www.w3.org/2000/svg" xmlns:xlink="http://www.w3.org/1999/xlink" x="0px" y="0px"
	 viewBox="0 0 432 432" style="enable-background:new 0 0 432 432;" xml:space="preserve">
<style type="text/css">
	.st0{fill:#8BB31C;}
	.st1{fill:#538F0B;}
	.st2{fill:#AABC6F;}
	.st3{fill:#333333;}
	.st4{fill:#CCCCCC;}
	.st5{fill:#39B54A;}
	.st6{fill:#FBB03B;}
	.st7{fill:#D89741;}
	.st8{fill:#507F0D;}
	.st9{fill:#DDB143;}
	.st10{fill:#C69C6D;}
	.st11{fill:#736357;}
	.st12{fill:#C7B299;}
	.st13{fill:#E6E6E6;}
</style>
<g>
	<g>
		<path class="st0" d="M133.77,135.98c-0.21-0.26-0.32-0.44-0.47-0.58c-2.13-1.93-3.28-4.39-3.83-7.15
			c-0.43-2.18-0.78-4.38-1.18-6.57c-0.57-3.15-1.5-6.2-2.87-9.09c-1.21-2.56-1.2-4.02,2.08-5.63c3.23-1.58,6.64-1.84,10.1-1.13
			c1.65,0.34,3.32,0.82,4.85,1.52c3.14,1.43,4.83,4.04,5.4,7.41c0.63,3.74-0.18,7.21-2.04,10.45c-0.84,1.48-1.84,2.87-2.79,4.28
			c-0.88,1.32-1.54,2.74-1.88,4.29c-0.38,1.72,0.06,2.59,1.74,3.09c0.9,0.27,1.89,0.41,2.84,0.39c4.24-0.08,8.48-0.13,12.7-0.4
			c6.19-0.4,12.33-1.27,18.36-2.83c1.1-0.28,2.19-0.61,3.28-0.92c0.47-0.13,0.95-0.3,1.32,0.18c0.39,0.51,0.34,1.06,0.07,1.61
			c-0.3,0.59-0.82,0.88-1.44,1.03c-3.23,0.76-6.43,1.65-9.68,2.27c-6.49,1.24-13.07,1.67-19.67,1.88c-1.61,0.05-3.21,0.33-4.81,0.5
			c-0.09,0.01-0.17,0.02-0.26,0.04c-2.58,0.56-3.31,1.75-2.43,4.24c0.48,1.36,1.16,2.64,1.68,3.98c0.67,1.7,1.43,3.39,1.87,5.16
			c1.6,6.37-1.37,11.79-5.69,14.83c-5.53,3.89-11.55,4.39-17.83,2.06c-2.06-0.76-3.97-1.82-5.68-3.22c-0.6-0.49-1.19-1.04-1.66-1.66
			c-1.13-1.47-1.01-2.82,0.35-4.06c0.84-0.76,1.77-1.43,2.67-2.12c2.75-2.1,5.37-4.35,7.42-7.17c1-1.38,1.94-2.8,2.91-4.2
			c1.36-1.98,2.71-3.96,4.07-5.94c0.45-0.65,1.01-1.32,0.62-2.14c-0.34-0.73-1.16-0.72-1.84-0.79c-2.91-0.3-5.82-0.58-8.74-0.84
			c-0.61-0.05-1.23-0.06-1.83,0c-1.27,0.13-2.23,0.76-2.74,1.95c-0.39,0.92-0.7,1.88-1.03,2.83c-0.47,1.32-0.87,2.66-1.41,3.94
			c-3.07,7.26-9.9,10.72-17.51,8.74c-5.89-1.53-10.7-4.83-14.53-9.54c-0.38-0.47-0.72-0.99-0.99-1.54
			c-0.74-1.52-0.23-2.71,1.41-3.09c1.23-0.29,2.49-0.43,3.75-0.59c5.41-0.65,10.6-2.11,15.68-4.05c0.65-0.25,1.32-0.45,1.97-0.7
			c0.3-0.12,0.58-0.31,0.84-0.46c-0.1-0.72-0.57-0.85-1.02-1.01c-3.96-1.35-7.93-2.7-11.89-4.06c-1.39-0.47-2.81-0.58-4.26-0.53
			c-2.75,0.08-5.5,0-8.22-0.53c-4.86-0.94-8.78-3.35-11.62-7.41c-1.1-1.57-2.07-3.24-3.04-4.89c-1.84-3.12-3.62-6.28-5.46-9.4
			c-1.56-2.64-0.98-4.4,1.92-5.51c1.93-0.74,3.95-1.09,6.01-1.26c3.26-0.26,6.47,0.04,9.58,1.05c6.6,2.14,10.73,6.67,12.53,13.31
			c0.66,2.44,1.09,4.94,1.62,7.42c0.38,1.79,1,3.46,2.47,4.64c0.54,0.43,1.12,0.85,1.75,1.11c3.76,1.53,7.61,2.83,11.54,3.84
			c0.08,0.02,0.17,0.05,0.25,0.08c0.49,0.18,0.99,0.21,1.26-0.31c0.25-0.46-0.07-0.83-0.4-1.14c-2.17-2.04-3.65-4.55-4.85-7.25
			c-2.04-4.56-4.38-8.94-7.52-12.86c-0.16-0.2-0.31-0.43-0.44-0.65c-0.83-1.41-0.59-2.6,0.8-3.49c0.62-0.4,1.31-0.69,2.01-0.93
			c4.47-1.53,8.93-1.34,13.36,0.2c5.69,1.97,7.15,7.05,6.61,11.05c-0.25,1.9-0.68,3.78-1.07,5.66c-0.51,2.45-0.86,4.9-0.69,7.41
			c0.18,2.73,1.42,4.24,4.12,4.83c1.36,0.3,2.76,0.45,4.14,0.61c1.74,0.19,3.48,0.33,5.22,0.46
			C132.38,136.75,133.11,136.71,133.77,135.98z"/>
		<path class="st0" d="M227.14,169.12c-1.4,0.03-2.81-0.38-4.11-1.16c-1.47-0.89-2.72-2.03-3.71-3.44c-0.96-1.38-1.8-2.83-2.46-4.38
			c-0.12-0.28-0.27-0.57-0.44-0.82c-0.3-0.43-0.61-0.42-0.89,0.02c-0.21,0.32-0.35,0.68-0.51,1.03c-0.82,1.9-1.87,3.67-3.25,5.22
			c-1.34,1.51-2.9,2.73-4.9,3.24c-3.21,0.82-6.26-0.07-8.24-3c-0.73-1.09-1.19-2.29-1.59-3.52c-0.2-0.61-0.39-1.23-0.57-1.85
			c-0.47-1.57-1.42-2.75-2.86-3.53c-0.84-0.46-1.69-0.91-2.52-1.38c-1.86-1.05-3.35-2.46-4.31-4.39c-1.25-2.48-1.19-4.93,0.2-7.34
			c1.13-1.96,2.78-3.4,4.74-4.48c1.24-0.69,2.56-1.19,3.91-1.59c0.27-0.08,0.55-0.16,0.82-0.27c0.26-0.1,0.45-0.28,0.44-0.59
			c-0.01-0.31-0.21-0.47-0.49-0.55c-0.21-0.06-0.42-0.11-0.62-0.17c-1.91-0.57-3.75-1.31-5.39-2.47c-1.43-1.01-2.62-2.24-3.48-3.77
			c-1.28-2.3-1.36-4.64-0.23-7.02c0.93-1.97,2.41-3.44,4.28-4.52c0.79-0.45,1.58-0.89,2.39-1.31c1.68-0.86,2.72-2.21,3.24-4.01
			c0.3-1.03,0.64-2.06,1.02-3.06c0.24-0.62,0.56-1.22,0.91-1.79c2.29-3.64,6.05-4.03,8.96-3.01c1.67,0.59,3.02,1.64,4.19,2.94
			c1.48,1.63,2.57,3.51,3.44,5.52c0.14,0.33,0.29,0.66,0.5,0.95c0.25,0.33,0.51,0.32,0.76-0.01c0.2-0.27,0.36-0.57,0.49-0.87
			c0.67-1.57,1.5-3.05,2.5-4.43c1.16-1.62,2.62-2.93,4.43-3.78c3.01-1.42,7.54-1.34,10.01,3.26c0.62,1.15,1.1,2.41,1.41,3.67
			c0.58,2.33,1.89,3.97,4.06,4.98c0.86,0.4,1.69,0.9,2.5,1.42c1.61,1.03,2.82,2.44,3.62,4.18c1.04,2.26,0.99,4.51-0.18,6.7
			c-1.15,2.16-2.91,3.71-5.05,4.86c-1.27,0.69-2.61,1.18-3.99,1.59c-0.25,0.07-0.53,0.13-0.73,0.28c-0.16,0.13-0.3,0.39-0.29,0.59
			c0.01,0.15,0.22,0.37,0.39,0.44c0.42,0.17,0.87,0.27,1.3,0.41c1.65,0.53,3.23,1.2,4.66,2.19c1.56,1.08,2.85,2.41,3.74,4.1
			c1.08,2.07,1.19,4.21,0.28,6.37c-0.89,2.13-2.4,3.72-4.39,4.88c-0.75,0.43-1.5,0.86-2.27,1.24c-1.84,0.9-2.97,2.34-3.49,4.32
			c-0.25,0.97-0.57,1.93-0.97,2.85c-0.36,0.83-0.79,1.64-1.32,2.37C231.65,168.17,229.7,169.13,227.14,169.12z"/>
		<path class="st0" d="M298.23,135.98c0.21-0.26,0.32-0.44,0.47-0.58c2.13-1.93,3.28-4.39,3.83-7.15c0.43-2.18,0.78-4.38,1.18-6.57
			c0.57-3.15,1.5-6.2,2.87-9.09c1.21-2.56,1.2-4.02-2.08-5.63c-3.23-1.58-6.64-1.84-10.1-1.13c-1.65,0.34-3.32,0.82-4.85,1.52
			c-3.14,1.43-4.83,4.04-5.4,7.41c-0.63,3.74,0.18,7.21,2.04,10.45c0.84,1.48,1.84,2.87,2.79,4.28c0.88,1.32,1.54,2.74,1.88,4.29
			c0.38,1.72-0.06,2.59-1.74,3.09c-0.9,0.27-1.89,0.41-2.84,0.39c-4.24-0.08-8.48-0.13-12.7-0.4c-6.19-0.4-12.33-1.27-18.36-2.83
			c-1.1-0.28-2.19-0.61-3.28-0.92c-0.47-0.13-0.95-0.3-1.32,0.18c-0.39,0.51-0.34,1.06-0.07,1.61c0.3,0.59,0.82,0.88,1.44,1.03
			c3.23,0.76,6.43,1.65,9.68,2.27c6.49,1.24,13.07,1.67,19.67,1.88c1.61,0.05,3.21,0.33,4.81,0.5c0.09,0.01,0.17,0.02,0.26,0.04
			c2.58,0.56,3.31,1.75,2.43,4.24c-0.48,1.36-1.16,2.64-1.68,3.98c-0.67,1.7-1.43,3.39-1.87,5.16c-1.6,6.37,1.37,11.79,5.69,14.83
			c5.53,3.89,11.55,4.39,17.83,2.06c2.06-0.76,3.97-1.82,5.68-3.22c0.6-0.49,1.19-1.04,1.66-1.66c1.13-1.47,1.01-2.82-0.35-4.06
			c-0.84-0.76-1.77-1.43-2.67-2.12c-2.75-2.1-5.37-4.35-7.42-7.17c-1-1.38-1.94-2.8-2.91-4.2c-1.36-1.98-2.71-3.96-4.07-5.94
			c-0.45-0.65-1.01-1.32-0.62-2.14c0.34-0.73,1.16-0.72,1.84-0.79c2.91-0.3,5.82-0.58,8.74-0.84c0.61-0.05,1.23-0.06,1.83,0
			c1.27,0.13,2.23,0.76,2.74,1.95c0.39,0.92,0.7,1.88,1.03,2.83c0.47,1.32,0.87,2.66,1.41,3.94c3.07,7.26,9.9,10.72,17.51,8.74
			c5.89-1.53,10.7-4.83,14.53-9.54c0.38-0.47,0.72-0.99,0.99-1.54c0.74-1.52,0.23-2.71-1.41-3.09c-1.23-0.29-2.49-0.43-3.75-0.59
			c-5.41-0.65-10.6-2.11-15.68-4.05c-0.65-0.25-1.32-0.45-1.97-0.7c-0.3-0.12-0.58-0.31-0.84-0.46c0.1-0.72,0.57-0.85,1.02-1.01
			c3.96-1.35,7.93-2.7,11.89-4.06c1.39-0.47,2.81-0.58,4.26-0.53c2.75,0.08,5.5,0,8.22-0.53c4.86-0.94,8.78-3.35,11.62-7.41
			c1.1-1.57,2.07-3.24,3.04-4.89c1.84-3.12,3.62-6.28,5.46-9.4c1.56-2.64,0.98-4.4-1.92-5.51c-1.93-0.74-3.95-1.09-6.01-1.26
			c-3.26-0.26-6.47,0.04-9.58,1.05c-6.6,2.14-10.73,6.67-12.53,13.31c-0.66,2.44-1.09,4.94-1.62,7.42c-0.38,1.79-1,3.46-2.47,4.64
			c-0.54,0.43-1.12,0.85-1.75,1.11c-3.76,1.53-7.61,2.83-11.54,3.84c-0.08,0.02-0.17,0.05-0.25,0.08c-0.49,0.18-0.99,0.21-1.26-0.31
			c-0.25-0.46,0.07-0.83,0.4-1.14c2.17-2.04,3.65-4.55,4.85-7.25c2.04-4.56,4.38-8.94,7.52-12.86c0.16-0.2,0.31-0.43,0.44-0.65
			c0.83-1.41,0.59-2.6-0.8-3.49c-0.62-0.4-1.31-0.69-2.01-0.93c-4.47-1.53-8.93-1.34-13.36,0.2c-5.69,1.97-7.15,7.05-6.61,11.05
			c0.25,1.9,0.68,3.78,1.07,5.66c0.51,2.45,0.86,4.9,0.69,7.41c-0.18,2.73-1.42,4.24-4.12,4.83c-1.36,0.3-2.76,0.45-4.14,0.61
			c-1.74,0.19-3.48,0.33-5.22,0.46C299.62,136.75,298.89,136.71,298.23,135.98z"/>
	</g>
	<g>
		<path class="st2" d="M151.02,306.14c-0.75,0-1.52-0.03-2.29,0.01c-2.4,0.12-4.8,0.26-7.19,0.4c-0.44,0.02-0.88,0.01-1.31,0.06
			c-1.36,0.14-1.84,0.55-2.18,1.87c-0.22,0.84-0.38,1.71-0.6,2.55c-0.98,3.75-2.76,7.08-5.36,9.93c-1.02,1.12-2.25,2.06-3.48,2.94
			c-0.61,0.44-1.42,0.69-2.17,0.85c-3.21,0.68-5.82-1.82-5.37-5.09c0.21-1.54,0.74-2.96,1.51-4.3c1.87-3.26,4.46-5.8,7.77-7.59
			c0.89-0.48,0.89-0.49,1.12-1.4c-0.47-0.08-0.92-0.18-1.38-0.23c-2.6-0.32-5.2-0.6-7.8-0.94c-1.82-0.23-2.68,0.14-3.54,1.76
			c-0.47,0.88-0.84,1.82-1.22,2.75c-1.87,4.65-4.78,8.51-8.76,11.55c-1.66,1.26-3.46,2.21-5.64,2.15c-3.61-0.1-6.34-3.02-6.13-6.61
			c0.13-2.3,1.02-4.32,2.43-6.11c2.12-2.68,4.85-4.5,8.07-5.59c1.2-0.41,2.44-0.68,3.64-1.06c0.38-0.12,0.72-0.35,1.39-0.69
			c-0.63-0.31-0.95-0.5-1.29-0.62c-2.31-0.8-4.65-1.52-6.92-2.4c-2.11-0.82-4.29-1.12-6.52-1.3c-3.32-0.27-6.58-0.87-9.69-2.12
			c-2.83-1.14-5.37-2.73-7.47-4.97c-1.74-1.85-2.99-3.97-3.52-6.48c-1.16-5.47,3.36-9.4,8.3-8.88c1.9,0.2,3.65,0.85,5.26,1.86
			c2.21,1.38,4.08,3.15,5.66,5.21c2.16,2.83,3.84,5.93,5.22,9.21c0.37,0.88,0.81,1.75,1.31,2.56c0.61,0.98,1.47,1.77,2.55,2.19
			c2.12,0.81,4.26,1.54,6.41,2.28c0.24,0.08,0.53,0.01,0.8,0.01c0.04-0.09,0.09-0.17,0.13-0.26c-0.28-0.29-0.55-0.6-0.85-0.87
			c-1.83-1.65-3.48-3.45-4.76-5.56c-1.31-2.17-2.16-4.49-2.16-7.05c0-2.79,1.06-5.09,3.68-6.29c2.68-1.23,5.3-0.92,7.61,0.99
			c2.54,2.11,3.84,4.93,4.4,8.12c0.6,3.39,0.43,6.78-0.09,10.17c-0.02,0.13-0.07,0.25-0.09,0.38c-0.29,1.87,0.21,2.61,2.1,2.87
			c2.94,0.4,5.89,0.73,8.84,1.08c0.22,0.03,0.45,0.07,0.65,0.03c0.32-0.06,0.62-0.2,0.93-0.3c-0.14-0.34-0.21-0.72-0.42-1
			c-0.31-0.41-0.74-0.74-1.1-1.12c-2.64-2.83-4.57-6.07-5.39-9.88c-0.39-1.81-0.38-3.64,0.33-5.41c1.58-3.95,6.15-5.24,9.51-2.65
			c2.07,1.6,3.14,3.82,3.64,6.33c0.5,2.55,0.4,5.14,0.12,7.7c-0.18,1.64-0.55,3.27-0.84,4.9c-0.18,1.01,0.11,1.5,1.12,1.66
			c0.51,0.08,1.05,0.1,1.57,0.08c2.71-0.11,5.41-0.23,8.12-0.37c0.48-0.02,0.96-0.09,1.42-0.23c0.66-0.2,0.77-0.65,0.33-1.19
			c-0.19-0.24-0.44-0.43-0.64-0.65c-2.87-3.15-5.07-6.67-6.06-10.86c-0.42-1.77-0.44-3.55,0.12-5.3c0.52-1.64,1.5-2.95,2.97-3.86
			c2.58-1.59,5.58-0.97,7.53,1.59c1.28,1.68,1.85,3.64,2.1,5.71c0.45,3.69-0.03,7.32-0.67,10.94c-0.08,0.43-0.18,0.85-0.26,1.28
			c-0.19,1.1,0.08,1.43,1.22,1.4c0.57-0.01,1.14-0.06,1.69-0.16c7.67-1.47,15.09-3.67,22.02-7.35c0.08-0.04,0.15-0.09,0.23-0.12
			c0.48-0.19,0.96-0.52,1.44,0.01c0.36,0.4,0.37,1.17-0.11,1.69c-0.41,0.43-0.93,0.79-1.46,1.07c-5.16,2.72-10.62,4.67-16.27,6.07
			c-2.07,0.52-4.18,0.9-6.27,1.36c-0.64,0.14-1.28,0.29-1.89,0.53c-0.87,0.34-1.11,0.85-0.93,1.77c0.08,0.43,0.25,0.83,0.38,1.25
			c0.99,3.23,1.66,6.52,1.42,9.93c-0.26,3.82-1.69,7.11-4.53,9.72c-0.67,0.61-1.43,1.16-2.22,1.6c-4.14,2.33-8.6-0.52-8.69-4.98
			c-0.03-1.55,0.19-3.15,0.59-4.65c1.28-4.78,3.74-8.91,7.32-12.36C150.81,307.23,151.36,306.91,151.02,306.14z"/>
		<path class="st2" d="M227.14,326.93c-1.4,0.03-2.81-0.38-4.11-1.16c-1.47-0.89-2.72-2.03-3.71-3.44c-0.96-1.38-1.8-2.83-2.46-4.38
			c-0.12-0.28-0.27-0.57-0.44-0.82c-0.3-0.43-0.61-0.42-0.89,0.02c-0.21,0.32-0.35,0.68-0.51,1.03c-0.82,1.9-1.87,3.67-3.25,5.22
			c-1.34,1.51-2.9,2.73-4.9,3.24c-3.21,0.82-6.26-0.07-8.24-3c-0.73-1.09-1.19-2.29-1.59-3.52c-0.2-0.61-0.39-1.23-0.57-1.85
			c-0.47-1.57-1.42-2.75-2.86-3.53c-0.84-0.46-1.69-0.91-2.52-1.38c-1.86-1.05-3.35-2.46-4.31-4.39c-1.25-2.48-1.19-4.93,0.2-7.34
			c1.13-1.96,2.78-3.4,4.74-4.48c1.24-0.69,2.56-1.19,3.91-1.59c0.27-0.08,0.55-0.16,0.82-0.27c0.26-0.1,0.45-0.28,0.44-0.59
			c-0.01-0.31-0.21-0.47-0.49-0.55c-0.21-0.06-0.42-0.11-0.62-0.17c-1.91-0.57-3.75-1.31-5.39-2.47c-1.43-1.01-2.62-2.24-3.48-3.77
			c-1.28-2.3-1.36-4.64-0.23-7.02c0.93-1.97,2.41-3.44,4.28-4.52c0.79-0.45,1.58-0.89,2.39-1.31c1.68-0.86,2.72-2.21,3.24-4.01
			c0.3-1.03,0.64-2.06,1.02-3.06c0.24-0.62,0.56-1.22,0.91-1.79c2.29-3.64,6.05-4.03,8.96-3.01c1.67,0.59,3.02,1.64,4.19,2.94
			c1.48,1.63,2.57,3.51,3.44,5.52c0.14,0.33,0.29,0.66,0.5,0.95c0.25,0.33,0.51,0.32,0.76-0.01c0.2-0.27,0.36-0.57,0.49-0.87
			c0.67-1.57,1.5-3.05,2.5-4.43c1.16-1.62,2.62-2.93,4.43-3.78c3.01-1.42,7.54-1.34,10.01,3.26c0.62,1.15,1.1,2.41,1.41,3.67
			c0.58,2.33,1.89,3.97,4.06,4.98c0.86,0.4,1.69,0.9,2.5,1.42c1.61,1.03,2.82,2.44,3.62,4.18c1.04,2.26,0.99,4.51-0.18,6.7
			c-1.15,2.16-2.91,3.71-5.05,4.86c-1.27,0.69-2.61,1.18-3.99,1.59c-0.25,0.07-0.53,0.13-0.73,0.28c-0.16,0.13-0.3,0.39-0.29,0.59
			c0.01,0.15,0.22,0.37,0.39,0.44c0.42,0.17,0.87,0.27,1.3,0.41c1.65,0.53,3.23,1.2,4.66,2.19c1.56,1.08,2.85,2.41,3.74,4.1
			c1.08,2.07,1.19,4.21,0.28,6.37c-0.89,2.13-2.4,3.72-4.39,4.88c-0.75,0.43-1.5,0.86-2.27,1.24c-1.84,0.9-2.97,2.34-3.49,4.32
			c-0.25,0.97-0.57,1.93-0.97,2.85c-0.36,0.83-0.79,1.64-1.32,2.37C231.65,325.99,229.7,326.95,227.14,326.93z"/>
		<path class="st2" d="M279.89,306.14c0.75,0,1.52-0.03,2.29,0.01c2.4,0.12,4.8,0.26,7.19,0.4c0.44,0.02,0.88,0.01,1.31,0.06
			c1.36,0.14,1.84,0.55,2.18,1.87c0.22,0.84,0.38,1.71,0.6,2.55c0.98,3.75,2.76,7.08,5.36,9.93c1.02,1.12,2.25,2.06,3.48,2.94
			c0.61,0.44,1.42,0.69,2.17,0.85c3.21,0.68,5.82-1.82,5.37-5.09c-0.21-1.54-0.74-2.96-1.51-4.3c-1.87-3.26-4.46-5.8-7.77-7.59
			c-0.89-0.48-0.89-0.49-1.12-1.4c0.47-0.08,0.92-0.18,1.38-0.23c2.6-0.32,5.2-0.6,7.8-0.94c1.82-0.23,2.68,0.14,3.54,1.76
			c0.47,0.88,0.84,1.82,1.22,2.75c1.87,4.65,4.78,8.51,8.76,11.55c1.66,1.26,3.46,2.21,5.64,2.15c3.61-0.1,6.34-3.02,6.13-6.61
			c-0.13-2.3-1.02-4.32-2.43-6.11c-2.12-2.68-4.85-4.5-8.07-5.59c-1.2-0.41-2.44-0.68-3.64-1.06c-0.38-0.12-0.72-0.35-1.39-0.69
			c0.63-0.31,0.95-0.5,1.29-0.62c2.31-0.8,4.65-1.52,6.92-2.4c2.11-0.82,4.29-1.12,6.52-1.3c3.32-0.27,6.58-0.87,9.69-2.12
			c2.83-1.14,5.37-2.73,7.47-4.97c1.74-1.85,2.99-3.97,3.52-6.48c1.16-5.47-3.36-9.4-8.3-8.88c-1.9,0.2-3.65,0.85-5.26,1.86
			c-2.21,1.38-4.08,3.15-5.66,5.21c-2.16,2.83-3.84,5.93-5.22,9.21c-0.37,0.88-0.81,1.75-1.31,2.56c-0.61,0.98-1.47,1.77-2.55,2.19
			c-2.12,0.81-4.26,1.54-6.41,2.28c-0.24,0.08-0.53,0.01-0.8,0.01c-0.04-0.09-0.09-0.17-0.13-0.26c0.28-0.29,0.55-0.6,0.85-0.87
			c1.83-1.65,3.48-3.45,4.76-5.56c1.31-2.17,2.16-4.49,2.16-7.05c0-2.79-1.06-5.09-3.68-6.29c-2.68-1.23-5.3-0.92-7.61,0.99
			c-2.54,2.11-3.84,4.93-4.4,8.12c-0.6,3.39-0.43,6.78,0.09,10.17c0.02,0.13,0.07,0.25,0.09,0.38c0.29,1.87-0.21,2.61-2.1,2.87
			c-2.94,0.4-5.89,0.73-8.84,1.08c-0.22,0.03-0.45,0.07-0.65,0.03c-0.32-0.06-0.62-0.2-0.93-0.3c0.14-0.34,0.21-0.72,0.42-1
			c0.31-0.41,0.74-0.74,1.1-1.12c2.64-2.83,4.57-6.07,5.39-9.88c0.39-1.81,0.38-3.64-0.33-5.41c-1.58-3.95-6.15-5.24-9.51-2.65
			c-2.07,1.6-3.14,3.82-3.64,6.33c-0.5,2.55-0.4,5.14-0.12,7.7c0.18,1.64,0.55,3.27,0.84,4.9c0.18,1.01-0.11,1.5-1.12,1.66
			c-0.51,0.08-1.05,0.1-1.57,0.08c-2.71-0.11-5.41-0.23-8.12-0.37c-0.48-0.02-0.96-0.09-1.42-0.23c-0.66-0.2-0.77-0.65-0.33-1.19
			c0.19-0.24,0.44-0.43,0.64-0.65c2.87-3.15,5.07-6.67,6.06-10.86c0.42-1.77,0.44-3.55-0.12-5.3c-0.52-1.64-1.5-2.95-2.97-3.86
			c-2.58-1.59-5.58-0.97-7.53,1.59c-1.28,1.68-1.85,3.64-2.1,5.71c-0.45,3.69,0.03,7.32,0.67,10.94c0.08,0.43,0.18,0.85,0.26,1.28
			c0.19,1.1-0.08,1.43-1.22,1.4c-0.57-0.01-1.14-0.06-1.69-0.16c-7.67-1.47-15.09-3.67-22.02-7.35c-0.08-0.04-0.15-0.09-0.23-0.12
			c-0.48-0.19-0.96-0.52-1.44,0.01c-0.36,0.4-0.37,1.17,0.11,1.69c0.41,0.43,0.93,0.79,1.46,1.07c5.16,2.72,10.62,4.67,16.27,6.07
			c2.07,0.52,4.18,0.9,6.27,1.36c0.64,0.14,1.28,0.29,1.89,0.53c0.87,0.34,1.11,0.85,0.93,1.77c-0.08,0.43-0.25,0.83-0.38,1.25
			c-0.99,3.23-1.66,6.52-1.42,9.93c0.26,3.82,1.69,7.11,4.53,9.72c0.67,0.61,1.43,1.16,2.22,1.6c4.14,2.33,8.6-0.52,8.69-4.98
			c0.03-1.55-0.19-3.15-0.59-4.65c-1.28-4.78-3.74-8.91-7.32-12.36C280.1,307.23,279.54,306.91,279.89,306.14z"/>
	</g>
	<g>
		<g>
			<path class="st1" d="M164.78,210.75c-1.74-0.25-3.06,0.04-4.37,0.33c-5.39,1.17-10.22,3.52-14.47,7.03
				c-2.93,2.42-5.79,4.93-8.71,7.37c-4.32,3.6-8.96,6.66-14.28,8.62c-6.19,2.28-12.55,2.91-19.08,2.12
				c-10.39-1.26-19.48-5.56-27.74-11.82c-3.73-2.83-7.22-5.94-10.55-9.23c-3.08-3.03-6.15-6.09-9.2-9.15
				c-0.58-0.59-1.14-1.22-1.6-1.9c-0.98-1.44-1.04-2.99-0.07-4.43c0.6-0.89,1.35-1.73,2.18-2.42c3.7-3.08,8.03-4.88,12.67-6.01
				c5.93-1.44,11.8-0.86,17.62,0.67c4.88,1.28,9.46,3.32,13.98,5.52c4.59,2.23,9.12,4.61,13.79,6.68c9.16,4.05,18.77,5.98,28.81,5.6
				c5.99-0.23,11.94-0.79,17.88-1.58c3.81-0.51,7.63-0.87,11.49-0.39c5.17,0.64,9.63,2.71,13.35,6.35c0.69,0.68,0.84,1.29,0.54,1.99
				c-0.41,0.93-1.31,1.18-2.13,0.58c-0.85-0.62-1.66-1.28-2.53-1.87c-4.03-2.77-8.46-3.71-13.21-2.55
				c-2.67,0.65-4.79,2.23-6.29,4.79c0.39,0.08,0.66,0.15,0.93,0.18c1.66,0.21,3.26,0.62,4.78,1.33c2.06,0.97,3.57,2.5,4.49,4.58
				c1.19,2.68,0.32,5.07-2.28,6.39c-3.92,1.99-10.72,0.4-12.15-5.09c-0.38-1.44-0.38-2.47,0.09-5.02c-0.3,0-0.59-0.06-0.85,0.01
				c-3.39,0.89-6.46,2.42-9.11,4.72c-2.12,1.84-3.55,4.11-3.71,6.98c-0.05,0.98,0.16,1.99,0.37,2.96c0.09,0.44,0.4,0.88,0.72,1.23
				c1.2,1.33,2.66,1.29,3.82-0.08c0.89-1.04,1.21-2.31,1.36-3.63c0.06-0.48,0.05-0.96,0.1-1.44c0.1-0.83,0.55-1.31,1.29-1.43
				c0.79-0.13,1.49,0.22,1.8,0.99c0.17,0.44,0.29,0.93,0.29,1.4c-0.03,2.81-1.14,5.11-3.5,6.67c-3.33,2.2-7.63,0.45-8.57-3.43
				c-0.55-2.29-0.29-4.51,0.67-6.65c1.01-2.24,2.55-4.06,4.49-5.54c3.18-2.42,6.73-4.04,10.69-4.68c0.66-0.11,1.1-0.34,1.43-0.95
				c0.94-1.75,2.19-3.25,3.75-4.5C164.08,211.76,164.31,211.34,164.78,210.75z M104.95,221.44c-1.61,0.69-3.14,0.96-4.71,1.01
				c-5.27,0.2-10.07-1.4-14.6-3.93c-3.4-1.9-6.33-4.35-8.56-7.57c-1.23-1.77-2.19-3.67-2.61-5.81c-0.82-4.27,2.19-8.02,6.55-7.82
				c4.33,0.19,7.63,2.39,9.75,6.14c1.34,2.37,0.1,4.2-2.61,4.11c-1.92-0.07-3.53-0.9-4.97-2.1c-0.77-0.64-1.49-1.36-2.27-1.97
				c-0.27-0.21-0.73-0.39-1.04-0.31c-0.51,0.12-0.73,0.64-0.67,1.15c0.06,0.56,0.18,1.13,0.42,1.64c1.34,2.85,3.61,4.6,6.67,5.17
				c3.81,0.71,7.09-1.93,7.34-5.78c0.1-1.59-0.42-3.01-1.31-4.3c-2.02-2.92-4.77-4.86-8.17-5.77c-4.99-1.34-10.13,1.81-11.23,6.81
				c-0.39,1.78-0.25,3.56,0.28,5.31c0.64,2.12,1.69,4.02,3.01,5.78c3.7,4.91,8.63,8.08,14.35,10.1c3.58,1.27,7.28,1.94,11.07,1.27
				c1.7-0.3,3.34-0.89,4.95-1.33c1.51,0.88,2.98,1.92,4.59,2.66c4.33,1.99,8.91,2.32,13.59,1.71c3.76-0.49,7.12-2.02,10.21-4.16
				c2.75-1.91,5.16-4.17,6.98-7.01c0.3-0.46,0.53-1.01,0.64-1.54c0.1-0.48-0.12-0.98-0.62-1.19c-0.53-0.22-0.77,0.24-1.04,0.57
				c-0.08,0.1-0.15,0.22-0.22,0.32c-1.79,2.6-4.11,4.63-6.79,6.26c-3.21,1.95-6.73,2.84-10.44,3.11c-4.44,0.32-8.72-0.21-12.71-2.31
				c-0.42-0.22-0.81-0.47-1.28-0.74c0.34-0.44,0.62-0.77,0.87-1.11c2.48-3.34,2-8.48-1.05-11.24c-1.94-1.76-4.43-1.58-6.1,0.45
				c-0.83,1.01-1.21,2.21-1.33,3.5c-0.25,2.68,0.53,5.09,1.95,7.33C104.13,220.32,104.5,220.8,104.95,221.44z M162.1,218.93
				c-0.63,1.33-0.84,2.5-0.74,4.02c0.24,3.59,3.3,5.95,6.82,5.27c2.18-0.42,3.31-2.3,2.6-4.42c-0.55-1.65-1.64-2.87-3.19-3.65
				C165.89,219.28,164.07,218.91,162.1,218.93z"/>
			<path class="st1" d="M107.96,219.86c-2.1-1.77-3.63-3.68-4.16-6.22c-0.16-0.78-0.12-1.67,0.07-2.45c0.5-1.97,2.42-2.63,4.1-1.5
				c2.63,1.78,3.37,5.93,1.5,8.5C109.07,218.75,108.55,219.22,107.96,219.86z"/>
		</g>
		<path class="st1" d="M227.14,246.79c-1.4,0.03-2.81-0.38-4.11-1.16c-1.47-0.89-2.72-2.03-3.71-3.44c-0.96-1.38-1.8-2.83-2.46-4.38
			c-0.12-0.28-0.27-0.57-0.44-0.82c-0.3-0.43-0.61-0.42-0.89,0.02c-0.21,0.32-0.35,0.68-0.51,1.03c-0.82,1.9-1.87,3.67-3.25,5.22
			c-1.34,1.51-2.9,2.73-4.9,3.24c-3.21,0.82-6.26-0.07-8.24-3c-0.73-1.09-1.19-2.29-1.59-3.52c-0.2-0.61-0.39-1.23-0.57-1.85
			c-0.47-1.57-1.42-2.75-2.86-3.53c-0.84-0.46-1.69-0.91-2.52-1.38c-1.86-1.05-3.35-2.46-4.31-4.39c-1.25-2.48-1.19-4.93,0.2-7.34
			c1.13-1.96,2.78-3.4,4.74-4.48c1.24-0.69,2.56-1.19,3.91-1.59c0.27-0.08,0.55-0.16,0.82-0.27c0.26-0.1,0.45-0.28,0.44-0.59
			c-0.01-0.31-0.21-0.47-0.49-0.55c-0.21-0.06-0.42-0.11-0.62-0.17c-1.91-0.57-3.75-1.31-5.39-2.47c-1.43-1.01-2.62-2.24-3.48-3.77
			c-1.28-2.3-1.36-4.64-0.23-7.02c0.93-1.97,2.41-3.44,4.28-4.52c0.79-0.45,1.58-0.89,2.39-1.31c1.68-0.86,2.72-2.21,3.24-4.01
			c0.3-1.03,0.64-2.06,1.02-3.06c0.24-0.62,0.56-1.22,0.91-1.79c2.29-3.64,6.05-4.03,8.96-3.01c1.67,0.59,3.02,1.64,4.19,2.94
			c1.48,1.63,2.57,3.51,3.44,5.52c0.14,0.33,0.29,0.66,0.5,0.95c0.25,0.33,0.51,0.32,0.76-0.01c0.2-0.27,0.36-0.57,0.49-0.87
			c0.67-1.57,1.5-3.05,2.5-4.43c1.16-1.62,2.62-2.93,4.43-3.78c3.01-1.42,7.54-1.34,10.01,3.26c0.62,1.15,1.1,2.41,1.41,3.67
			c0.58,2.33,1.89,3.97,4.06,4.98c0.86,0.4,1.69,0.9,2.5,1.42c1.61,1.03,2.82,2.44,3.62,4.18c1.04,2.26,0.99,4.51-0.18,6.7
			c-1.15,2.16-2.91,3.71-5.05,4.86c-1.27,0.69-2.61,1.18-3.99,1.59c-0.25,0.07-0.53,0.13-0.73,0.28c-0.16,0.13-0.3,0.39-0.29,0.59
			c0.01,0.15,0.22,0.37,0.39,0.44c0.42,0.17,0.87,0.27,1.3,0.41c1.65,0.53,3.23,1.2,4.66,2.19c1.56,1.08,2.85,2.41,3.74,4.1
			c1.08,2.07,1.19,4.21,0.28,6.37c-0.89,2.13-2.4,3.72-4.39,4.88c-0.75,0.43-1.5,0.86-2.27,1.24c-1.84,0.9-2.97,2.34-3.49,4.32
			c-0.25,0.97-0.57,1.93-0.97,2.85c-0.36,0.83-0.79,1.64-1.32,2.37C231.65,245.84,229.7,246.8,227.14,246.79z"/>
		<g>
			<path class="st1" d="M268.26,212.03c1.56,1.25,2.81,2.75,3.75,4.5c0.33,0.61,0.76,0.84,1.43,0.95c3.96,0.64,7.5,2.27,10.69,4.68
				c1.95,1.48,3.49,3.3,4.49,5.54c0.96,2.14,1.22,4.37,0.67,6.65c-0.94,3.88-5.24,5.63-8.57,3.43c-2.36-1.56-3.47-3.86-3.5-6.67
				c-0.01-0.47,0.11-0.96,0.29-1.4c0.3-0.77,1.01-1.12,1.8-0.99c0.74,0.12,1.19,0.6,1.29,1.43c0.06,0.48,0.05,0.96,0.1,1.44
				c0.15,1.32,0.47,2.58,1.36,3.63c1.16,1.37,2.62,1.41,3.82,0.08c0.31-0.35,0.62-0.78,0.72-1.23c0.21-0.97,0.42-1.98,0.37-2.96
				c-0.15-2.87-1.59-5.14-3.71-6.98c-2.65-2.3-5.72-3.83-9.11-4.72c-0.26-0.07-0.55-0.01-0.85-0.01c0.47,2.55,0.47,3.58,0.09,5.02
				c-1.43,5.5-8.23,7.08-12.15,5.09c-2.6-1.32-3.47-3.71-2.28-6.39c0.92-2.08,2.43-3.61,4.49-4.58c1.52-0.71,3.12-1.12,4.78-1.33
				c0.27-0.03,0.54-0.1,0.93-0.18c-1.5-2.56-3.62-4.14-6.29-4.79c-4.75-1.16-9.18-0.22-13.21,2.55c-0.86,0.59-1.68,1.26-2.53,1.87
				c-0.82,0.6-1.72,0.35-2.13-0.58c-0.31-0.69-0.16-1.31,0.54-1.99c3.72-3.64,8.18-5.71,13.35-6.35c3.86-0.48,7.68-0.12,11.49,0.39
				c5.94,0.79,11.89,1.35,17.88,1.58c10.04,0.39,19.65-1.55,28.81-5.6c4.67-2.06,9.2-4.44,13.79-6.68c4.52-2.2,9.1-4.24,13.98-5.52
				c5.82-1.53,11.69-2.1,17.62-0.67c4.64,1.12,8.97,2.93,12.67,6.01c0.83,0.69,1.58,1.52,2.18,2.42c0.97,1.44,0.9,2.99-0.07,4.43
				c-0.46,0.68-1.02,1.31-1.6,1.9c-3.05,3.06-6.12,6.12-9.2,9.15c-3.33,3.28-6.82,6.39-10.55,9.23
				c-8.26,6.27-17.35,10.56-27.74,11.82c-6.53,0.79-12.89,0.16-19.08-2.12c-5.32-1.96-9.97-5.02-14.28-8.62
				c-2.92-2.44-5.78-4.94-8.71-7.37c-4.25-3.51-9.08-5.86-14.47-7.03c-1.31-0.28-2.64-0.58-4.37-0.33
				C267.69,211.34,267.92,211.76,268.26,212.03z M328.2,219.81c1.42-2.23,2.2-4.64,1.95-7.33c-0.12-1.29-0.5-2.48-1.33-3.5
				c-1.67-2.03-4.16-2.21-6.1-0.45c-3.05,2.77-3.53,7.9-1.05,11.24c0.25,0.34,0.53,0.67,0.87,1.11c-0.47,0.27-0.87,0.53-1.28,0.74
				c-4,2.1-8.28,2.63-12.71,2.31c-3.71-0.27-7.23-1.16-10.44-3.11c-2.68-1.63-5-3.65-6.79-6.26c-0.07-0.11-0.14-0.22-0.22-0.32
				c-0.27-0.34-0.5-0.79-1.04-0.57c-0.51,0.21-0.72,0.7-0.62,1.19c0.11,0.54,0.34,1.08,0.64,1.54c1.82,2.84,4.23,5.1,6.98,7.01
				c3.09,2.15,6.44,3.67,10.21,4.16c4.68,0.61,9.26,0.29,13.59-1.71c1.61-0.74,3.09-1.78,4.59-2.66c1.61,0.44,3.25,1.03,4.95,1.33
				c3.79,0.67,7.49,0,11.07-1.27c5.72-2.02,10.66-5.19,14.35-10.1c1.32-1.76,2.37-3.66,3.01-5.78c0.53-1.75,0.67-3.53,0.28-5.31
				c-1.11-5-6.24-8.15-11.23-6.81c-3.4,0.91-6.15,2.86-8.17,5.77c-0.89,1.29-1.42,2.71-1.31,4.3c0.25,3.85,3.53,6.49,7.34,5.78
				c3.06-0.57,5.33-2.32,6.67-5.17c0.24-0.5,0.35-1.08,0.42-1.64c0.06-0.5-0.17-1.02-0.67-1.15c-0.31-0.08-0.77,0.1-1.04,0.31
				c-0.79,0.62-1.5,1.33-2.27,1.97c-1.44,1.2-3.05,2.04-4.97,2.1c-2.71,0.09-3.95-1.74-2.61-4.11c2.12-3.75,5.42-5.95,9.75-6.14
				c4.36-0.19,7.37,3.55,6.55,7.82c-0.41,2.14-1.38,4.04-2.61,5.81c-2.23,3.22-5.16,5.67-8.56,7.57c-4.54,2.53-9.33,4.13-14.6,3.93
				c-1.57-0.06-3.1-0.33-4.71-1.01C327.5,220.8,327.87,220.32,328.2,219.81z M264.4,220.14c-1.55,0.78-2.64,2-3.19,3.65
				c-0.7,2.12,0.42,4,2.6,4.42c3.52,0.68,6.58-1.68,6.82-5.27c0.1-1.52-0.11-2.69-0.74-4.02
				C267.93,218.91,266.11,219.28,264.4,220.14z"/>
			<path class="st1" d="M324.04,219.86c2.1-1.77,3.63-3.68,4.16-6.22c0.16-0.78,0.12-1.67-0.07-2.45c-0.5-1.97-2.42-2.63-4.1-1.5
				c-2.63,1.78-3.37,5.93-1.5,8.5C322.93,218.75,323.45,219.22,324.04,219.86z"/>
		</g>
	</g>
</g>
</svg>
